<?xml version="1.0" encoding="utf-8"?>
<!-- Generator: Adobe Illustrator 27.3.1, SVG Export Plug-In . SVG Version: 6.00 Build 0)  -->
<svg version="1.1"
	 id="Трилистник_x5F_вкусно_x5F_натурально_x5F_полезно_x5F_6666_xA0_Изображение_00000165198053912133273560000015636213923754906510_"
	 xmlns="http://www.w3.org/2000/svg" xmlns:xlink="http://www.w3.org/1999/xlink" x="0px" y="0px" viewBox="0 0 187.8 187.1"
	 style="enable-background:new 0 0 187.8 187.1;" xml:space="preserve">
<style type="text/css">
	.st0{fill:#FFFFFF;}
	.st1{fill:#719952;}
</style>
<g>
	<ellipse class="st0" cx="93.9" cy="95.3" rx="93.9" ry="91.8"/>
	<path class="st1" d="M93.9,92.9c-0.4,0.3-0.7,0.5-0.9,0.8c-5.6,6.6-12.3,11.9-18.9,17.4c-6.7,5.5-13.3,11.1-18.7,18
		c-4.1,5.3-7.1,11.2-8.5,17.8c-0.5,2.7-0.6,5.4-0.9,8.2c-0.2,2.3-0.7,4.5-2.4,6.2c-2,2.1-4.2,1.6-4.9-1.3c-0.4-1.6-0.3-3.2-0.2-4.9
		c0.6-14.1,7.8-24.7,18.2-33.4c6.9-5.8,14.1-11.1,21.2-16.7c4.9-3.9,9.5-8.1,13.4-13c0.3-0.3,0.5-0.7,0.7-1.1c0.1-0.1,0-0.3,0.1-0.6
		c-0.5,0.2-1,0.3-1.4,0.5c-7.6,3.3-15.4,5.9-23.6,7.3c-9.3,1.5-18.5,1.6-27.2-2.5c-6.2-2.9-10.8-7.5-12.5-14.5
		c-2.2-9.3,2.6-18.2,11.8-21.7c2.2-0.8,4.6-1.2,6.9-1.8c0.3-0.1,0.6-0.2,0.9-0.3c-0.7-2-1.5-3.9-1.9-5.8c-2.5-10.6,5.5-22.5,16.2-24
		c6.2-0.8,11.5,1.1,16.3,5c3.1,2.6,5.6,5.6,7.8,9c6.1,9.6,9.3,20.3,11.6,31.3c-0.8-2.5-1.6-5.1-2.6-7.6C92.1,58.5,89,52.1,84,46.9
		c-2.8-2.9-6-5.3-10.2-5.9c-4.1-0.6-7.4,0.7-9.9,3.9c-3.8,5-3.7,10.5-2,16.2c0.8,2.6,1.9,5,4.2,6.7c3.6,2.6,8.6,2.9,11.9,0.5
		c3-2.2,4.4-7.2,3.2-11.4c-1-3.1-2.6-5.7-6.1-6.1c-1.9-0.2-3.8,0.3-5,1.9c-1.3,1.7-1.3,3.6-0.5,5.5c1.2,2.9,6,3.3,8.2,0.7
		c0.3-0.4,0.6-0.7,0.9-1.1c1.9,2,1.8,4.5-0.4,6c-3.1,2.1-6.4,2.1-9.7,0.6c-3.1-1.4-4.5-4.1-4.8-7.5c-0.7-7.7,5.9-10.6,11.7-9.8
		c3.6,0.5,6.4,2.2,8.8,5C89.8,59,93.2,67,96.2,75.1c0.7,1.9,1.4,3.7,2.1,5.6c0.1,0,0.2,0,0.4,0c0.4-2,0.8-4,1.2-6
		c1.7-8.1,4-16.1,8.2-23.3c2.3-3.9,5-7.5,9.3-9.4c4.2-1.9,8.4-1.4,12.5,0.7c0.6,0.3,1.1,0.9,1.5,1.5c2.7,3.6,3,10.3,0.6,14.1
		c-1.6,2.7-4.3,3.5-7.2,1.9c0.6-0.5,1.2-1,1.7-1.5c1.7-1.8,1.4-3.8-0.7-5.1c-2.9-1.9-6.7-1.3-8.3,1.4c-1.7,2.9-0.4,7.2,2.7,9
		c2.4,1.3,4.9,1,7.4,0.3c6.4-2,10.9-7.8,11.4-14.7c0.5-7-3-13.5-8.7-16.3c-3.9-1.9-7.8-1.7-11.6,0.3c-5.5,3-9.1,7.8-11.9,13.4
		c-3.2,6.5-5,13.5-6.9,20.5c-0.1,0.2-0.1,0.5-0.4,0.7c0.2-1.3,0.4-2.5,0.6-3.8c0.2-1.3,0.4-2.6,0.6-3.8c1.3-7.3,3.3-14.3,6.7-20.9
		c2.6-5,5.8-9.5,10.5-12.6c12.3-8.2,27.3-0.3,29.9,13c0.7,3.4,0.4,6.8-0.7,10.1c-0.1,0.4-0.2,0.8-0.4,1.5c0.7,0,1.2,0,1.8,0
		c12.1-0.8,21.1,10,20.8,20.5c-0.2,8-4.4,13.3-11,17.1c-4.6,2.6-9.7,3.9-14.9,4.5c-2.7,0.3-5.3,0.5-8,0.6c-8.8,0.2-17.5-1-26.1-2.7
		c-0.4-0.1-0.7-0.1-1.2,0.2c0.5,0.3,1,0.5,1.4,0.8c9.2,4.7,18.1,10.1,25.6,17.2c5.3,5.1,9.9,10.7,11.9,18c3.3,12.1-3.9,23.3-16.3,25
		c-5.8,0.8-11.1-0.9-15.6-4.8c-0.4-0.3-0.8-0.7-1.3-1.1c-0.4,1.1-0.7,2.1-1.1,3c-3.2,6.9-8.6,10.6-16.1,11.4
		c-6.9,0.7-12.8-1.4-17.2-6.9c-3-3.6-4.2-8-4.5-12.6c-0.5-8.8,2-17.1,5.6-24.9c2.3-5,5-9.7,7.7-14.4c-1.6,3.7-3.2,7.5-4.7,11.3
		c-2.1,5.6-3,11.5-2.4,17.4c0.2,2.7,0.8,5.3,1.7,7.9c1.7,4.9,6.2,6.9,11.7,5.5c7.4-1.8,11.4-7,13.5-14c1.1-3.8,1.3-7.6,0.3-11.4
		c-0.9-3.5-3.4-5.8-6.8-6.1c-3.3-0.3-6.4,1.6-7.9,4.7c-1,2.2-2.1,4.4-1.3,6.9c0.2,0.6,0.4,1.2,0.8,1.7c1,1.6,2.4,2.5,4.3,2.2
		c1.7-0.2,2.6-1.5,3.2-3c0.4-1,0.6-2,0.9-3.1c2,1,2.7,2.6,2.9,4.5c0.3,3.9-0.9,7.4-3.5,10.2c-3.7,4.2-11,2.8-13.4-2.6
		c-1.9-4.4-2.4-9.1-2-13.9c0.8-8.9,4.2-16.9,7.8-24.9c0.3-0.7,0.6-1.3,0.9-2C94,93.4,94,93.3,93.9,92.9z M144,134.7
		c0-3.3-2-5.1-5.5-4.3c-3.2,0.7-6.4,1.6-9.6,2.5c-0.3,0.1-0.6,0.3-0.8,0.5c-1.7,1.7-1.5,3.8,0.6,5.3c3.7,2.8,7.7,3,11.9,1.3
		C142.7,139,144.1,137.4,144,134.7z M41.8,78.5c0.8-0.2,1.4-0.4,2-0.7c2.6-1.2,3.1-4.3,1-6.3c-1-1-2.3-1-3.4-0.1
		c-1.1,0.9-2.2,1.9-3.2,2.9c-1.7,1.8-3.5,3.5-4.9,5.4c-1.5,2-1.2,3.7,0.5,5.3c1.5,1.5,3.5,1.7,5.4,0.4
		C41.7,83.8,42.5,81.5,41.8,78.5z M49,81.8c-0.2-0.2-0.3-0.3-0.5-0.5c0.3-0.6,0.6-1.2,0.9-1.8c0.3-0.5,0.6-1,0.9-1.5
		c0.4-0.7,0.8-1.6-0.1-2c-0.4-0.2-1.4,0.1-1.8,0.6c-0.8,0.7-1.4,1.7-2,2.6c-1.8,2.9-3.5,5.8-5.2,8.7c-0.3,0.5-0.4,1.6-0.3,1.7
		c0.7,0.3,1.6,0.7,2.3,0.5c0.5-0.1,1-0.9,1.3-1.4c0.5-1,0.9-2.2,1.4-3.1c0.3-0.5,0.9-0.7,1.4-1.1c0.2,0.6,0.6,1.3,0.5,1.9
		c-0.2,1-0.7,2-1.1,3c-0.5,1.5-0.2,2.4,0.9,2.8c1.1,0.4,2.2,0,2.6-1.4c0.4-1.5,0.8-3.1,0.7-4.6c0-1.9,0.6-3.3,1.8-4.5
		c0.5-0.5,1-0.9,1.4-1.5c0.4-0.5,1.4-0.9,0.5-1.8c-0.8-0.7-1.7-0.8-2.4,0.1c-0.6,0.6-1,1.4-1.6,2C50.2,81,49.6,81.4,49,81.8z
		 M126,129.1c0,0.3,0,0.6,0.1,0.9c0.7,0.1,1.4,0.5,2.1,0.4c2.9-0.6,5.8-1.2,8.7-2c1.1-0.3,2.1-0.8,3.1-1.4c0.8-0.5,1.6-1.1,1-2.2
		c-0.6-1.1-1.5-0.8-2.4-0.4c-0.9,0.4-1.8,0.9-2.7,1.3c-1,0.5-1.4-0.1-1.8-0.9c-0.5-0.9,0.1-1.2,0.8-1.5c1-0.5,2.1-0.9,2.9-1.5
		c0.4-0.3,0.6-1.3,0.5-1.8c-0.3-0.9-1.1-0.8-1.9-0.4c-2.2,1-4.4,1.9-6.5,3c-1.4,0.7-2.7,1.6-4,2.5c-0.4,0.3-0.5,1-0.8,1.5
		c0.1,0.1,0.3,0.3,0.4,0.4c0.9-0.3,1.9-0.5,2.8-0.9c0.8-0.3,1.6-0.9,2.4-1c0.5-0.1,1.2,0.4,1.6,0.9c0.1,0.2-0.3,1.1-0.7,1.3
		c-0.6,0.4-1.4,0.4-2.2,0.7C128.1,128.3,127,128.7,126,129.1z M155,66.7c0.3,0.9,0.4,1.6,0.7,2.1c2.1,3,4.3,5.9,6.5,8.8
		c0.3,0.4,1.8,0.5,2,0.2c0.9-1.5,2.3-3.2,2.3-4.8c-0.1-3.8-2.3-6.7-5.8-8.1c-1.2-0.5-2.9-0.1-4.3,0.2
		C155.9,65.2,155.5,66.2,155,66.7z M149.4,71.8c-0.1,0.1-0.3,0.3-0.4,0.4c0.5,0.9,1,1.9,1.5,2.8c1.7,2.9,3.5,5.9,5.2,8.8
		c0.1,0.2,0.5,0.6,0.7,0.6c0.3-0.1,0.8-0.4,0.9-0.6c0.1-0.7,0.2-1.4-0.1-2c-0.4-1-1.1-1.9-1.6-2.9c-0.4-0.7-0.8-1.4,0.1-2
		c1-0.7,1.5,0.1,1.9,0.8c0.6,1.1,1.1,2.2,1.7,3.3c0.2,0.3,0.6,0.8,0.9,0.7c0.3-0.1,0.8-0.6,0.8-0.9c0-0.9-0.1-1.9-0.4-2.8
		c-1.3-3.1-3.4-5.5-6-7.6c-0.5-0.4-1.1-0.7-1.6-0.9c-0.7-0.2-1.2,0.1-0.8,0.9c0.2,0.5,0.5,0.9,0.9,1.3c0.5,0.5,1.1,1,1.4,1.6
		c0.2,0.4,0,1,0,1.5c-0.5,0-1.2,0.1-1.6-0.2c-0.6-0.4-0.9-1.2-1.5-1.7C150.7,72.5,150,72.2,149.4,71.8z M83.2,89
		c0.9-0.4,1.9-0.6,2.6-1.3c2.6-2.3,1.6-7.9-1.6-9.3c-2.5-1.1-5.3,0.4-5.2,3.2c0.1,1.8,0.6,3.7,1.2,5.4C80.6,88.3,81.8,88.9,83.2,89z
		 M58.5,87.2c-0.1-0.8-0.2-1.3-0.1-1.8c0-1.4,0.2-2.9,0.2-4.3c0-0.9-0.3-2-1.5-1.9c-0.4,0.1-0.8,1.3-0.9,2c-0.1,0.9,0.1,1.9,0.2,2.9
		c0.1,1.6,0.3,3.2,0.3,4.9c0,1.8-0.4,2.1-2.2,2.2c-0.4,0-1.1,0.2-1.3,0.6c-0.2,0.5,0.5,1,0.8,1.2c1.5,1,4.5,0,5.3-1.8
		c1.2-3,2.3-6,3.4-9c0.2-0.5,0.2-1.1,0.3-2C59.4,81.3,60.4,85,58.5,87.2z M75.1,80c0,0.9,0.1,1.9,0,2.8c-0.1,0.5-0.6,0.9-0.9,1.4
		c-0.4-0.4-0.9-0.7-1.1-1.2c-0.2-0.6-0.1-1.3-0.3-2c-0.1-0.4-0.6-0.8-0.9-0.8c-0.3,0-0.9,0.4-1,0.7c-0.1,1-0.2,2.1-0.1,3.1
		c0.2,2.2,0.4,4.3,0.6,6.4c0.1,0.7-0.1,1.4,1,1.4c0.9,0,1.3-0.5,1.3-1.4c0-0.8-0.3-1.6-0.1-2.4c0.1-0.6,0.5-1.4,0.9-1.6
		c0.9-0.4,1.4,0.2,1.3,1.2c0,0.6,0.1,1.2,0.4,1.7c0.4,0.5,1,0.8,1.6,1.1c0.2-0.6,0.6-1.2,0.5-1.7c-0.3-2.5-0.9-5-1.1-7.5
		C77,79.9,76.4,79.7,75.1,80z M111.9,109.1c1.3,0.9,2.4,0.5,3.4-0.4c1.1-1,2-2.2,3.1-3.2c0.6-0.5,1.3-0.9,2.3-1.6c-0.1,2-1.1,3-2,4
		c-0.9,1.1-1.9,2-2.7,3.2c-0.3,0.4-0.1,1.1-0.2,1.6c0.6,0,1.2,0,1.7-0.2c0.5-0.2,0.9-0.7,1.3-1.1c1.5-1.8,3-3.6,4.5-5.4
		c0.8-0.9,0.7-1.6-0.2-2.3c-0.4-0.4-0.8-0.8-1.3-1.1c-1.7-1.3-3.1-1.2-4.6,0.4C115.6,105,113.8,107,111.9,109.1z M115.1,99.9
		c0-1.7-0.8-2.6-2.1-3.1c-1.5-0.6-3.3-0.5-4,0.8c-1.1,1.9-2.2,3.8-2.8,5.9c-0.7,2.2,1.9,4.1,4,3.3C112.5,106,115.1,102.3,115.1,99.9
		z M122.9,118.1c-0.2,0-0.4,0-0.6,0c-0.1,0.7-0.3,1.5-0.3,2.2c0.1,1.6,1.4,2.2,2.8,2.5c1.6,0.4,3.9-0.5,4.5-1.9
		c0.5-1.3,1.5-1.8,2.7-2c2-0.4,2.6-1,2.7-2.4c0.1-1.8-1-3.7-2.6-4.1c-0.5-0.1-1.1,0.1-1.6,0.2c0.2,0.5,0.3,1.1,0.7,1.4
		c0.9,0.8,1,1.5,0.3,2.4c-0.7,0.8-1.7,0.8-2.7,0.1c-0.4-0.3-1-0.3-1.6-0.4c-0.1,0.5-0.3,1.1-0.1,1.6c0.4,1.1,0.4,2-0.8,2.5
		c-1.2,0.6-2,0.2-2.7-0.8C123.4,118.9,123.2,118.5,122.9,118.1z M144.7,75.1c-0.2,0.1-0.3,0.2-0.5,0.3c0.2,0.9,0.3,1.8,0.6,2.6
		c1.4,2.9,2.8,5.8,4.2,8.7c0.6,1.1,1.6,1.2,2.6,0.6c1.3-0.9,2.2-2.2,1.9-3.7c-0.4-2-0.9-4-3.2-4.8c-0.3-0.1-0.6-0.2-0.8-0.1
		c-1.7,0.6-2.5-0.5-3.3-1.8C145.9,76.1,145.2,75.6,144.7,75.1z M140.9,79c0.2-0.1,0.4-0.2,0.6-0.3c0.5,0.7,1,1.4,1.3,2.2
		c0.5,1.2,0.8,2.5,1.3,3.7c0.4,1.1,0.9,2.2,1.5,3.2c0.2,0.3,0.9,0.3,1.3,0.5c0.1-0.5,0.4-1,0.2-1.4c-1.3-3.1-2.6-6.2-3.9-9.3
		c-0.5-1.2-1.3-1.5-2.5-0.9c-1.8,0.8-2.1,1.3-1.7,2.8c1,3,1.9,6,1.6,9.2c0,0.3,0.2,0.8,0.4,0.8c0.4,0.1,1,0,1.2-0.2
		c0.3-0.3,0.6-0.9,0.6-1.4c-0.2-1.5-0.4-2.9-0.7-4.4C141.7,82,141.3,80.5,140.9,79z M102.5,103.4c0.2,0,0.3,0.1,0.5,0.1
		c0.4-0.4,0.9-0.8,1.2-1.3c0.9-1.4,1.7-2.9,2.4-4.4c1.4-3.2,1-3.9-2.3-4.8c-1.6-0.4-2.8,0-3.3,1.6c-0.7,2-1.3,4-1.8,6.1
		c-0.1,0.3,0.3,0.8,0.5,1.2c0.3-0.2,0.9-0.3,1-0.6c0.5-1,0.9-2,1.3-3c0.4-1,0.8-2.1,1.3-3c0.2-0.3,0.8-0.5,1.2-0.4
		c0.2,0,0.5,0.7,0.4,1.1c-0.2,0.9-0.6,1.8-1,2.7c-0.4,1.1-1,2.1-1.3,3.2C102.3,102.3,102.5,102.9,102.5,103.4z M130,110.1
		c-0.9-1-1.7-2-2.5-2.9c-0.7-0.7-1.6-1.2-2.4-0.3c-1.9,1.9-3.8,3.8-5.6,5.8c-1.6,1.9-1.2,3.8,1,5c0.3,0.1,0.8,0.1,1-0.1
		c0.2-0.2,0.3-0.8,0.2-1c-1.7-1.5-0.4-2.5,0.6-3.5c0.6-0.6,1.1-0.8,1.8-0.2c0.4,0.3,0.9,0.2,1.4,0.3c-0.1-0.5-0.2-1-0.2-1.5
		c0-0.6-0.2-1.5,0.1-1.8c0.4-0.4,1.3-0.4,1.9-0.3c0.4,0,0.8,0.5,1.1,0.9C129.1,111.3,129.6,111,130,110.1z M132.1,85.2
		c0,1.7,0,2.9,0,4.1c0,0.4,0.3,1,0.6,1.2c0.7,0.3,1.3-0.1,1.4-0.9c0.3-1.2,1-1.7,2.1-1.3c0.5,0.2,0.7,1,1.2,1.4
		c0.3,0.3,0.8,0.4,1.2,0.6c0.1-0.4,0.4-0.8,0.3-1.1c-1.1-3.3-2.8-6.3-5.1-8.9c-0.2-0.2-0.7-0.3-1-0.3c-0.2,0-0.3,0.5-0.4,0.8
		C132.3,82.3,132.2,84,132.1,85.2z M63.3,88.4c0.1,0,0.2,0,0.3,0.1c0,0.5,0,1.1,0,1.6c-0.1,1.2,0.3,2.2,1.3,2.8
		c1.2,0.7,2.4,0.5,3.5-0.3c0.4-0.3,0.6-0.8,0.9-1.2c-0.4-0.2-0.8-0.5-1.2-0.5c-1.5,0-2.2-0.9-2.2-2.2c0-2.8-0.4-5.7,2.8-7.2
		c0,0,0.1,0,0.1-0.1c0.1-0.3,0.4-0.6,0.4-0.8c-0.1-0.2-0.5-0.4-0.8-0.5c-1.9-0.3-3.2,0.3-3.8,2.2C64,84.4,63.7,86.4,63.3,88.4z
		 M127.8,90.6c0.2,0,0.4-0.1,0.5-0.1c0.1-0.6,0.4-1.1,0.3-1.7c-0.1-1.2,0.2-2.1,1.3-2.7c1.1-0.7,1.3-2,0.9-3.1
		c-0.4-0.9-1.1-2-1.9-2.4c-1.4-0.8-3,0.2-2.8,1.5c0.3,2.4,0.5,4.7,0.9,7.1C127.1,89.6,127.5,90.1,127.8,90.6z M123.8,85.3
		c-0.2,0-0.3,0-0.5,0c-0.3-1-0.5-2.1-0.9-3.1c-0.2-0.4-0.9-0.6-1.4-0.9c0,0.4-0.2,0.9-0.1,1.3c0.3,1.1,0.7,2.2,1.2,3.2
		c0.7,1.5,0.8,2.8-0.7,3.9c0,0,0,0.2,0,0.3c1.3,1,2.7,0.7,2.9-0.7c0.4-2.3,0.7-4.7,0.9-7.1c0-0.4-0.3-0.8-0.5-1.3
		c-0.3,0.4-0.7,0.8-0.8,1.3C123.8,83.3,123.8,84.3,123.8,85.3z M113.5,89.2c0.2-0.1,0.4-0.3,0.6-0.4c-0.2-2.1-0.4-4.3-0.7-6.4
		c-0.1-0.5-0.4-1-0.7-1.4c-0.4,0.3-1,0.6-1.3,1c-0.9,1.5-1.7,3-2.4,4.6c-0.2,0.4-0.1,0.9-0.2,1.4c0.5-0.1,1-0.1,1.4-0.4
		c1.2-0.8,1.5-0.8,2.1,0.5C112.6,88.6,113.1,88.9,113.5,89.2z M108.5,80.2c-0.5,0.7-1.1,1.4-1.6,2.2c-0.2-0.1-0.4-0.1-0.6-0.2
		c0.1-0.9,0.2-1.7,0.3-2.6c-1.4,0.3-3.1,5.3-2.4,6.8c0.7-0.9,1.4-1.7,2-2.6c0.1,0.1,0.2,0.1,0.3,0.2c0,1,0,2,0,3.4
		C108.2,85.1,108.7,82.8,108.5,80.2z M118,89.4c0-1.7,0-3.4,0-5.1c0-1.1,0.2-2,1.5-2.2c0.2,0,0.5-0.4,0.5-0.5c0-0.2-0.3-0.5-0.5-0.5
		c-1.4,0-2.9,0-4.3,0c-0.2,0-0.4,0.3-0.4,0.4c0,0.2,0.2,0.5,0.3,0.5c2.3,0.3,1.7,2,1.5,3.4c-0.1,1-0.2,2.1-0.1,3.1
		C116.4,89.4,117,89.8,118,89.4z"/>
	<path class="st1" d="M24.8,125.8c0.7,0.2,2,0.5,3.2,1.1c4.1,2,7.4,5,9.6,9c0.5,0.9,0.9,2.2,0.7,3.2c-0.8,3.4-2.4,4.2-5.7,3
		c-3.5-1.3-6.7-3.2-9.3-5.9c-1-1-2-1.9-2.9-3c-1.3-1.7-0.9-3.5,0-5.2C21.2,126.5,22.5,125.8,24.8,125.8z M35.7,139.2
		c-0.2-0.8-0.3-1.3-0.5-1.6c-2.7-3.1-5.7-6-9.4-7.9c-0.5-0.3-1.3,0-2,0c0.1,0.7,0,1.4,0.2,2.1c0.2,0.5,0.5,1.1,1,1.4
		c2.8,1.9,5.6,3.8,8.5,5.6C34.1,139.1,34.8,139,35.7,139.2z"/>
	<path class="st1" d="M42.7,131.2c-1-1.1-1.8-2.1-2.7-3.1c-0.9-0.9-1.8-1.1-2.8,0c-1.4,1.4-2.5,1.4-4,0.2c-1.8-1.3-3.6-2.6-5.3-4
		c-1.3-1.1-1.2-1.7-0.2-2.8c0.7-0.7,1.3-0.7,2-0.1c0.9,0.9,1.8,1.8,2.7,2.6c0.5,0.4,0.9,0.9,1.5,1.1c0.5,0.2,1.2,0,1.8-0.1
		c-0.2-0.5-0.2-1.2-0.5-1.6c-1-1-2.1-1.8-3.1-2.8c-0.7-0.7-1.4-1.4-0.4-2.4c1-1,1.5-1.1,2.6,0c3,2.9,5.9,5.9,8.9,8.9
		C44.9,129,44.8,129.5,42.7,131.2z"/>
	<path class="st1" d="M51.1,114c-1.1,0.1-1.6,1.1-1.2,1.8c0.6,0.8,1.3,1.5,1.8,2.2c0.4,0.5,0.8,1.1,0.8,1.6c0,0.5-0.3,1.1-0.7,1.4
		c-0.2,0.2-1,0-1.2-0.3c-2.3-2.7-4.5-5.5-6.7-8.3c-0.6-0.8-1.8-1.9-0.3-2.9c1.4-1,2,0.5,2.6,1.4c0.4,0.5,0.7,1.2,1.3,1.5
		c0.4,0.2,1.1,0.2,1.5,0c0.3-0.2,0.4-1,0.2-1.4c-0.2-0.6-0.8-1.1-1.2-1.6c-0.6-0.8-0.8-1.6,0.2-2.3c1-0.7,1.5-0.1,1.9,0.6
		c1.8,2.7,3.6,5.5,5.4,8.2c0.4,0.6,0.7,1.3,0,1.9c-0.8,0.7-1.4,0.2-1.9-0.4c-0.6-0.8-1.2-1.7-1.9-2.6
		C51.6,114.4,51.2,114.2,51.1,114z"/>
	<path class="st1" d="M50,123.7c-1.3,1.2-2.6,2.3-3.9,3.3c-0.2,0.1-1-0.3-1.3-0.6c-2.8-2.8-5.6-5.7-8.3-8.6
		c-1.3-1.4-1.2-2.3,0.4-3.4c1.2-0.8,2.4-1.5,3.7-2.2c0.3-0.1,0.9-0.1,1,0c0.2,0.4,0.4,1,0.2,1.2c-0.4,0.6-1,1-1.6,1.5
		c-0.7,0.5-1.1,1.2-0.4,1.9c0.7,0.7,1.2,2,2.5,1.1c0.4-0.2,0.7-0.6,1.1-0.7c0.4-0.1,1-0.2,1.3,0.1c0.2,0.2,0.1,0.8,0.1,1.3
		c0,0.1-0.1,0.2-0.2,0.2c-1.4,2-1.4,2,0.2,3.7c1.3,1.4,1.4,1.4,3,0.2c0.4-0.3,1-0.4,1.4-0.3C49.4,122.5,49.6,123.1,50,123.7z"/>
	<path class="st1" d="M51.7,106c1.9-1.6,2.5-1.5,3.5,0.5c1,1.9,1.1,2,3.1,1.3c1.2-0.4,2.2-0.3,3,0.6c0.9,1,1.3,2.2,0.8,3.6
		c-0.7,1.8-2.3,2.7-3.8,3.6c-0.2,0.1-0.8-0.1-0.9-0.3C55.5,112.2,53.6,109.1,51.7,106z M57.9,110c-0.1,0.2-0.2,0.3-0.3,0.5
		c0.4,0.7,0.8,1.5,1.3,2.2c0.5,0.6,1.3,0.5,1.3-0.3c0-0.7-0.6-1.4-1.1-2C58.9,110.1,58.3,110.1,57.9,110z"/>
	<path class="st1" d="M63.1,101.7c0.2,0.1,0.6,0.4,0.7,0.7c0.5,1.3,1,2.7,1.4,4.1c0.1,0.3-0.3,1-0.7,1.2c-0.4,0.2-1.2,0.2-1.4,0
		c-1-1.4-1.9-2.8-2.7-4.3C60.1,102.7,61.5,101.7,63.1,101.7z"/>
	<path class="st1" d="M65.5,111.6c-0.5-0.5-0.9-0.9-1.2-1.2c0.5-0.5,1.1-1,1.7-1.3c0.2-0.1,0.7,0.5,1.1,0.8
		C66.6,110.4,66.1,110.9,65.5,111.6z"/>
	<path class="st1" d="M133.2,137.9c-0.9-0.3-1.8-0.5-2.7-0.9c-0.3-0.1-0.6-0.7-0.6-1c0-0.3,0.5-0.8,0.8-0.9c2.8-0.6,5.7-1.2,8.6-1.6
		c0.7-0.1,1.9,0.5,2.1,1c0.3,1-0.6,1.8-1.6,2C137.6,137.2,135.4,137.5,133.2,137.9z"/>
	<path class="st1" d="M39,78.9c0.1,1.1-2.1,3.3-3.2,3.4c-0.7,0.1-1.4-0.1-0.9-0.7c0.9-1.1,2-2,3.1-3C38.1,78.6,38.7,78.9,39,78.9z"
		/>
	<path class="st1" d="M40.3,76.3c0.8-1,1.5-1.9,2.4-2.9c0.6,1.4-0.1,2.4-2,3.2C40.6,76.5,40.5,76.4,40.3,76.3z"/>
	<path class="st1" d="M164.7,73.4c-0.3,0.4-0.4,0.9-0.8,1.1c-0.2,0.1-0.8,0-1-0.2c-1.7-1.9-3.3-3.9-4.9-5.9
		c-0.3-0.4-0.1-1.1-0.1-1.7c0.5,0.2,1.2,0.2,1.6,0.6c1.4,1.3,2.7,2.6,3.9,4C164,71.9,164.3,72.7,164.7,73.4z"/>
	<path class="st1" d="M85.2,85.4c-0.4,0.4-0.8,1-1.3,1.2c-0.2,0.1-1-0.3-1.1-0.6c-0.6-1.7-1.1-3.3-1.6-5c-0.1-0.2,0.3-0.7,0.6-0.8
		c0.3-0.1,1,0,1.1,0.2C83.7,82,84.4,83.6,85.2,85.4z"/>
	<path class="st1" d="M108.1,103.6c0.4-0.7,0.7-1.3,1-1.9c0.6-1,1.2-2,2-2.8c0.3-0.3,1-0.5,1.3-0.4c0.3,0.2,0.6,1,0.5,1.2
		c-0.9,1.6-1.9,3.1-2.9,4.6c-0.2,0.3-0.8,0.5-1.1,0.4C108.4,104.6,108.3,104,108.1,103.6z"/>
	<path class="st1" d="M150.7,85.2c-0.5-1.2-1.1-2.3-1.6-3.5c-0.1-0.1,0.1-0.5,0.3-0.6c0.2-0.1,0.5,0,0.6,0.1
		C150.8,81.6,151.5,84.1,150.7,85.2z"/>
	<path class="st1" d="M134.3,83.1c0.4,0.9,0.8,1.7,1.1,2.6c0.1,0.3-0.3,0.7-0.5,1c-0.3-0.3-0.7-0.5-0.8-0.8c-0.1-0.9,0-1.8,0-2.7
		C134.2,83.2,134.2,83.2,134.3,83.1z"/>
	<path class="st1" d="M128.2,82.4c0.9,0.6,1.1,1.3,0.1,2.6c-0.3-1.1-0.4-1.8-0.6-2.5C127.9,82.5,128.1,82.5,128.2,82.4z"/>
	<path class="st1" d="M112.3,83.6c0,0.5,0.1,1,0,1.5c0,0.2-0.4,0.3-0.5,0.5c-0.1-0.2-0.4-0.5-0.3-0.6c0.1-0.5,0.3-1,0.5-1.5
		C112.1,83.5,112.2,83.5,112.3,83.6z"/>
</g>
</svg>
