<?xml version="1.0" encoding="utf-8"?>
<!-- Generator: Adobe Illustrator 27.3.1, SVG Export Plug-In . SVG Version: 6.00 Build 0)  -->
<svg version="1.1" id="Слой_1" xmlns="http://www.w3.org/2000/svg" xmlns:xlink="http://www.w3.org/1999/xlink" x="0px" y="0px"
	 viewBox="0 0 383.3 352.3" style="enable-background:new 0 0 383.3 352.3;" xml:space="preserve">
<style type="text/css">
	.st0{fill:#FFFFFF;}
</style>
<path class="st0" d="M383.3,72.7c0,69,0,138,0,207c-0.6,3.2-1.2,6.4-1.9,9.5c-8.6,37.6-40.3,63-79.3,63c-73.7,0.1-147.4,0-221.1,0
	c-4,0-8-0.2-11.9-0.8c-40.5-6.1-69-39.2-69-80.2c0-63.4,0-126.7,0-190.1c0-4.5,0.2-9,1-13.4C7.5,28.5,40,0.3,79.9,0.2
	c74.5-0.3,148.9-0.3,223.4,0c38.2,0.1,69.6,25.8,78.1,63C382.1,66.3,382.6,69.5,383.3,72.7z M33.3,104.6c-0.4,0.2-0.8,0.5-1.3,0.7
	c0,1.1,0,2.2,0,3.3c0,54.1,0,108.2,0,162.4c0,28.4,20.8,49.2,49.2,49.2c73.6,0,147.2,0,220.8,0c28.4,0,49.2-20.7,49.2-49.1
	c0.1-54.1,0-108.2,0-162.4c0-1.2-0.1-2.3-0.2-3.5c-0.4-0.2-0.7-0.4-1.1-0.6c-0.9,1.2-1.6,2.5-2.7,3.6
	c-32.4,32.5-64.9,65.1-97.4,97.6c-33.7,33.7-82.9,33.7-116.5,0c-32.5-32.5-64.9-65-97.4-97.6C34.9,107.1,34.2,105.8,33.3,104.6z
	 M191.9,32.2c-37.2,0-74.3-0.2-111.5,0.1c-19.4,0.1-33.7,9.1-43.2,26.1c-1.6,2.9-1.3,4.6,1.1,7c39.5,39.4,78.9,78.9,118.3,118.4
	c20.2,20.2,49.7,20.3,69.8,0.2c39.6-39.6,79.2-79.4,118.9-119c2.1-2.1,2.3-3.6,1-6.1c-9.3-17.2-23.7-26.5-43.2-26.6
	C266,32,229,32.2,191.9,32.2z"/>
</svg>
