<?xml version="1.0" encoding="utf-8"?>
<!-- Generator: Adobe Illustrator 27.3.1, SVG Export Plug-In . SVG Version: 6.00 Build 0)  -->
<svg version="1.1" id="Слой_1" xmlns="http://www.w3.org/2000/svg" xmlns:xlink="http://www.w3.org/1999/xlink" x="0px" y="0px"
	 viewBox="0 0 408.7 400.3" style="enable-background:new 0 0 408.7 400.3;" xml:space="preserve">
<style type="text/css">
	.st0{fill:#FFFFFF;}
</style>
<path class="st0" d="M408.7,215.1c-0.8,6.4-1.4,12.9-2.3,19.3c-4,28.9-13.9,55.6-29.4,80.2c-19.2,30.4-44.7,54.4-76.5,71.3
	c-9.7,5.1-20,9.3-30.2,13.3c-8.9,3.4-15.2-1.4-15.2-11.1c0-17.6,0.2-35.1,0.2-52.7c0-9.8-1.1-19.4-5.6-28.3c-2-4-4.8-7.5-7.3-11.4
	c7.2-1.3,14.5-2.3,21.7-3.9c20.3-4.7,38.4-13.3,51.6-30.2c9.6-12.3,14.6-26.5,17-41.6c2-12.5,2.7-25.1,1.1-37.8
	c-1.9-14.9-7.7-28.1-17.4-39.6c-2.1-2.5-2.3-4.5-1.4-7.4c4.9-16.5,3.1-32.6-2.9-48.4c-0.4-1.1-3-2.3-4.4-2c-6.5,1-13.4,1.6-19.4,4.1
	c-10.2,4.4-19.8,10.2-29.7,15.2c-1.9,1-4.6,1.5-6.6,1c-31.9-7.8-63.7-7.7-95.6,0c-1.9,0.5-4.5,0-6.2-1
	c-11.8-7.3-23.7-14.4-37.3-17.7c-4.2-1-8.6-1.3-13-1.7c-2-0.2-3.2,0.8-4,3c-5.6,16.3-7.2,32.6-1.9,49.3c0.4,1.2,0,3.2-0.8,4.2
	c-17.3,20.1-21.3,43.7-18.6,69.1c1.3,12.6,3.9,24.9,9.3,36.5c8.9,19.1,23.5,31.8,42.8,39.6c11.4,4.6,23.4,7.1,35.5,8.7
	c1.3,0.2,2.6,0.5,3.7,0.7c-2.7,4.4-5.6,8.5-7.7,12.9c-1.7,3.7-2.3,7.9-3.6,11.7c-0.4,1.3-1.2,2.9-2.2,3.4
	c-15.6,6.3-31.1,7.9-45.3-3.2c-4.5-3.5-8.3-8.3-11.5-13.1c-6.2-9.2-13.2-17.2-24-20.5c-4.3-1.3-9.1-1.5-13.6-1.2
	c-4.2,0.3-4.9,3.2-2.1,6.4c1.8,2,3.8,3.8,6,5.2c9.5,6,15.6,14.7,20.2,24.6c3.4,7.5,6.5,15.2,12.6,21.1c11.4,11.1,25.5,14.8,41,14.1
	c5.8-0.2,11.6-1.2,17.9-1.9c0,11.7,0.4,23.4-0.1,35.1c-0.3,8-7,11.6-15,8.8c-25.5-8.9-48.6-22.1-68.8-40
	c-26.9-23.9-46.5-52.8-58.2-86.8c-9.2-26.4-12.8-53.7-10.8-81.7C4.1,141.2,23,98.3,57.4,62.6C95.2,23.5,141.6,2.4,196,0.2
	C289-3.6,371.8,55.2,399.5,144c4.6,14.8,7.6,29.9,8.5,45.3c0.1,1.2,0.5,2.3,0.7,3.5C408.7,200.2,408.7,207.7,408.7,215.1z"/>
</svg>
