<?xml version="1.0" encoding="utf-8"?>
<!-- Generator: Adobe Illustrator 27.3.1, SVG Export Plug-In . SVG Version: 6.00 Build 0)  -->
<svg version="1.1" id="Слой_1" xmlns="http://www.w3.org/2000/svg" xmlns:xlink="http://www.w3.org/1999/xlink" x="0px" y="0px"
	 viewBox="0 0 383.3 382.6" style="enable-background:new 0 0 383.3 382.6;" xml:space="preserve">
<style type="text/css">
	.st0{fill:#FFFFFF;}
</style>
<path class="st0" d="M228.2,63.9c-1.1,0-2.2,0-3.4,0c-9.8-0.2-17.2,6.4-17.5,15.6c-0.3,9.1,6.9,16.1,16.8,16.3
	c35.2,0.8,62.4,28,63.2,63.4c0.2,9.5,7.3,16.7,16.2,16.5c9.1-0.2,16.3-7.6,15.7-17c-0.5-7.9-1.4-15.9-3.3-23.6
	C306.3,97,271.9,66.3,228.2,63.9z"/>
<path class="st0" d="M87.1,0c1.2,0.3,2.3,0.7,3.5,1c11.7,2.7,21.4,8.5,28.7,18.3c9.5,12.7,19.4,25,29.2,37.5
	c14.8,18.7,14.1,45.3-1.5,63.4c-6.4,7.5-12.3,15.4-18.6,23c-1.6,1.9-0.8,3.4-0.1,5.1c12.6,29,30.9,53.7,54.9,74.3
	c15.6,13.3,32.8,24,51.6,32.2c2.2,1,3.7,0.9,5.6-0.7c7.8-6.5,15.8-12.7,23.6-19.1c18.9-15.4,45.8-14.7,64.4,1
	c11.8,10,24.3,19.1,36.6,28.5c9.8,7.5,15.1,17.6,17.4,29.6c0.2,0.8,0.5,1.6,0.7,2.4c0,3.7,0,7.5,0,11.2c-1.7,8-3.5,16-8.7,22.4
	c-7.1,8.7-14,17.7-22.2,25.3c-23.4,22-52,29.2-83.4,26.7c-26.9-2.1-51.9-10.8-75.9-22.7c-35.7-17.7-67.1-41.4-95.3-69.3
	C63.2,256,34.4,217.8,15.4,172.7C5.4,148.6-1,123.8,0.1,97.4C1,74.9,7.3,53.8,22.3,36.8c9.5-10.9,21.2-20,32.5-29.2
	c4-3.2,9.7-4.3,14.7-6.2c1.6-0.6,3.3-0.9,5-1.4C78.6,0,82.8,0,87.1,0z M282.2,350.6c2.7-0.2,7.5-0.4,12.1-1.1
	c14.3-2.2,27.1-7.8,37.3-18.3c5.4-5.6,10.3-11.5,15.3-17.4c6.6-7.8,5.4-18.9-2.6-25.1c-12.5-9.7-25.1-19.4-37.6-29.1
	c-6.8-5.3-15.6-5.2-22.5,0.2c-10.7,8.6-21.5,17.1-32.1,25.8c-5.9,4.8-12,5.8-19.2,2.9C167,262.1,120.7,216,94.3,150.1
	c-2.9-7.1-1.9-13.2,2.9-19.1c8.7-10.6,17.2-21.4,25.8-32.1c5.5-6.8,5.6-15.6,0.3-22.4c-9.7-12.5-19.5-25-29.2-37.5
	c-6.5-8.3-17.3-9.4-25.4-2.5c-4.4,3.7-8.6,7.6-13,11.3c-15,12.4-21.4,29-23.4,47.7c-2.2,21.1,2.6,41.1,10.3,60.6
	c11.9,30.3,29.7,57,50.8,81.6c33.2,38.8,71.5,71.3,117.6,94.1C232.8,342.5,255.5,350.2,282.2,350.6z"/>
<path class="st0" d="M383.3,163.2c-2.4,5.9-5.9,10.6-12.6,12c-9,1.9-17.7-3.8-19-12.9c-0.8-5.5-0.7-11.2-1.3-16.8
	c-5.8-51.8-42.4-94.9-92.8-108.9c-10.9-3-22-4.5-33.3-4.7c-8.2-0.1-13.9-4.2-16.2-10.9c-2.6-7.6,1-16,8.3-19.5
	c1.1-0.5,2.2-1,3.3-1.5c4.5,0,9,0,13.5,0c1,0.2,1.9,0.5,2.9,0.6c26.9,2.1,51.8,10.4,74.3,25.4c37.7,25,61.2,59.8,69.9,104.2
	c1.3,6.4,1.9,13,2.9,19.5C383.3,154.2,383.3,158.7,383.3,163.2z"/>
<path class="st0" d="M228.2,63.9c43.7,2.4,78.1,33.1,87.8,71.2c1.9,7.7,2.8,15.7,3.3,23.6c0.6,9.4-6.6,16.8-15.7,17
	c-9,0.2-16-7-16.2-16.5c-0.9-35.4-28-62.6-63.2-63.4c-9.9-0.2-17.1-7.2-16.8-16.3c0.3-9.2,7.7-15.8,17.5-15.6
	C225.9,63.9,227,63.9,228.2,63.9z"/>
</svg>
