<?xml version="1.0" encoding="utf-8"?>
<!-- Generator: Adobe Illustrator 27.3.1, SVG Export Plug-In . SVG Version: 6.00 Build 0)  -->
<svg version="1.1" id="Слой_1" xmlns="http://www.w3.org/2000/svg" xmlns:xlink="http://www.w3.org/1999/xlink" x="0px" y="0px"
	 viewBox="0 0 383.5 319.3" style="enable-background:new 0 0 383.5 319.3;" xml:space="preserve">
<style type="text/css">
	.st0{fill:#FFFFFF;}
</style>
<path class="st0" d="M383.5,24.8c-2.2,10.1-4.5,20.1-6.7,30.2c-16.4,76.7-32.8,153.5-49.1,230.2c-1.2,5.7-2.3,11.5-3.8,17.1
	c-5.5,21-20.9,19.8-32.8,11.2c-24.5-17.6-48.7-35.6-73.1-53.4c-3.6-2.7-7.4-5.2-10.8-8c-2-1.6-3.2-1.4-5,0.3
	c-14.1,13.6-28.3,27.1-42.4,40.6c-4.2,4-9,6.5-15.4,6.3c0.4-5.5,0.7-10.8,1.1-16.1c1.7-23.3,3.3-46.5,5.1-69.8
	c0.1-1.8,1.3-4,2.6-5.3C206,160.5,259,112.9,312,65.4c0.6-0.6,1.5-1.1,1.9-1.8c0.9-1.6,1.5-3.4,2.2-5.1c-1.8-0.5-3.8-1.7-5.4-1.3
	c-3,0.7-5.9,2-8.5,3.6c-66,41.2-131.9,82.4-197.8,123.7c-2.5,1.5-4.5,1.7-7.2,0.9c-27.6-8.7-55.2-17.1-82.7-25.9
	c-3.6-1.1-7.2-2.9-10.3-5.1c-5-3.6-5.7-8.9-1.2-13.1c3.7-3.5,8.2-6.7,12.9-8.5c27.4-10.9,55-21.3,82.6-31.8
	C184.6,68,270.6,35,356.7,2.1c2.8-1.1,5.7-1.9,8.7-2.1c9-0.7,15,3.8,17.3,12.5c0.2,0.8,0.5,1.6,0.8,2.5
	C383.5,18.3,383.5,21.6,383.5,24.8z"/>
</svg>
