<?xml version="1.0" encoding="utf-8"?>
<!-- Generator: Adobe Illustrator 27.3.1, SVG Export Plug-In . SVG Version: 6.00 Build 0)  -->
<svg version="1.1" id="Слой_1" xmlns="http://www.w3.org/2000/svg" xmlns:xlink="http://www.w3.org/1999/xlink" x="0px" y="0px"
	 viewBox="0 0 638.9 449.6" style="enable-background:new 0 0 638.9 449.6;" xml:space="preserve">
<style type="text/css">
	.st0{fill:#FFFFFF;}
</style>
<path class="st0" d="M317.8,0.8C383.4,3.4,449,5.7,514.6,8.7c15.5,0.7,30.9,2.8,46.2,5.5c37,6.6,60.8,31.8,67.8,70.8
	c9.6,53.6,11.5,107.8,9.7,162c-1.3,37.7-5.1,75.3-8.5,112.9c-0.9,10.2-3.5,20.7-7.4,30.2c-12.8,30.8-37.1,46.3-69.6,50.3
	c-60.9,7.6-122.1,8.4-183.3,9.4c-75.4,1.3-150.8,0.1-226.2-4.4c-21.2-1.3-42.4-3.5-63.5-6.6c-36.5-5.3-61.4-30.4-68.9-68
	c-7.5-37.4-9.3-75.4-10.4-113.3C-1,206.8,0.6,156.2,7,105.9c1.4-11,3.3-22,6.1-32.7C21.7,39.6,49,17,85.2,12.5
	c62.4-7.9,125.2-8.5,187.9-9.6c14.9-0.3,29.7,0,44.6,0C317.8,2.2,317.8,1.5,317.8,0.8z M256.3,129.9c0,64.2,0,127.4,0,191.4
	c55.4-32,110.2-63.6,165.8-95.7C366.3,193.4,311.6,161.9,256.3,129.9z"/>
</svg>
